<svg xmlns="http://www.w3.org/2000/svg" width="142" height="130.167" viewBox="0 0 142 130.167">
  <path id="iconfinder___money_transaction_transfer_send_3668846" d="M139.083,5H8.917A5.59,5.59,0,0,0,3,10.917v71a5.59,5.59,0,0,0,5.917,5.917H139.083A5.59,5.59,0,0,0,145,81.917v-71A5.59,5.59,0,0,0,139.083,5ZM17.792,58.25c-1.183,0-2.367,0-2.958.592V33.992c.592.592,1.775.592,2.958.592A14.648,14.648,0,0,0,32.583,19.792c0-1.183,0-2.367-.592-2.958h83.425v2.958a14.648,14.648,0,0,0,14.792,14.792c1.183,0,2.367,0,2.958-.592V58.25a25.625,25.625,0,0,0-2.958-.592A14.648,14.648,0,0,0,115.417,72.45c0,1.183,0,2.367.592,2.958H31.992c.592,0,.592-1.183.592-2.367A14.648,14.648,0,0,0,17.792,58.25ZM56.25,46.417a17.75,17.75,0,0,1,35.5,0,17.75,17.75,0,0,1-35.5,0ZM14.833,105.583V99.667H133.167v5.917a5.59,5.59,0,0,1-5.917,5.917H20.75A5.59,5.59,0,0,1,14.833,105.583Zm14.2,23.667v-5.917h88.75v5.917a5.59,5.59,0,0,1-5.917,5.917H34.95A5.59,5.59,0,0,1,29.033,129.25Z" transform="translate(-3 -5)" fill="#17b978"/>
</svg>
